<svg width="284" height="72" viewBox="0 0 284 72" fill="none" xmlns="http://www.w3.org/2000/svg">
  <defs>
    <linearGradient id="mark-a" x1="12" y1="8" x2="50" y2="62" gradientUnits="userSpaceOnUse">
      <stop stop-color="#FFBF5D"/>
      <stop offset=".45" stop-color="#FF7B4B"/>
      <stop offset="1" stop-color="#F3456D"/>
    </linearGradient>
    <linearGradient id="mark-b" x1="60" y1="8" x2="32" y2="64" gradientUnits="userSpaceOnUse">
      <stop stop-color="#FFD79A"/>
      <stop offset=".42" stop-color="#FF8351"/>
      <stop offset="1" stop-color="#2868F3"/>
    </linearGradient>
  </defs>
  <path d="M14.6 12.2C18.2 9.7 23.1 10.7 25.3 14.3L36 32.4L46.7 14.3C48.9 10.7 53.8 9.7 57.4 12.2C61 14.7 62 19.5 59.6 23L43.2 53.8C41.1 57.8 35 57.8 32.9 53.8L12.4 23C10 19.5 11 14.7 14.6 12.2Z" fill="url(#mark-a)"/>
  <path d="M36 32.4L46.7 14.3C48.9 10.7 53.8 9.7 57.4 12.2C61 14.7 62 19.5 59.6 23L43.2 53.8C42.2 55.7 39.5 57 36 57V32.4Z" fill="url(#mark-b)"/>
  <path d="M85.4 21.8L97.2 50.4L108.9 21.8H118.5L101.9 59H92.2L75.7 21.8H85.4Z" fill="#FAFCFF"/>
  <path d="M138.3 60C134.5 60 131.2 59.2 128.4 57.8C125.6 56.4 123.4 54.4 121.9 51.8C120.4 49.2 119.7 46.1 119.7 42.6C119.7 39.2 120.4 36.1 121.9 33.5C123.4 30.8 125.5 28.8 128.2 27.4C130.9 26 134 25.3 137.6 25.3C141.1 25.3 144.1 26 146.7 27.3C149.3 28.6 151.4 30.6 152.9 33.1C154.4 35.6 155.1 38.7 155.1 42.3C155.1 42.9 155.1 43.6 155 44.3C155 45 154.9 45.6 154.8 46.1H128.9C129.2 48.6 130.2 50.6 131.8 51.9C133.4 53.3 135.4 53.9 137.9 53.9C141.4 53.9 143.9 52.5 145.4 49.8H154.6C153.6 53.1 151.7 55.7 148.9 57.6C146.2 59.2 142.7 60 138.3 60ZM145.9 39.7C145.8 37.5 145 35.8 143.4 34.5C141.8 33.1 139.8 32.4 137.3 32.4C135 32.4 133.1 33.1 131.6 34.4C130 35.7 129.1 37.5 128.8 39.7H145.9Z" fill="#FAFCFF"/>
  <path d="M177.1 60C173.4 60 170.1 59.2 167.3 57.7C164.5 56.2 162.3 54.1 160.8 51.4C159.2 48.7 158.5 45.7 158.5 42.4C158.5 39 159.2 36 160.8 33.3C162.3 30.6 164.5 28.6 167.3 27.1C170.1 25.6 173.4 24.9 177.1 24.9C180.3 24.9 183.2 25.5 185.8 26.8C188.4 28.1 190.4 29.9 191.9 32.3V26H200.8V59H191.9V52.6C190.5 55 188.4 56.9 185.8 58.2C183.2 59.4 180.3 60 177.1 60ZM179.7 52.4C182.7 52.4 185.1 51.4 187 49.4C188.9 47.4 189.8 45 189.8 42.3C189.8 39.5 188.9 37.1 187 35.1C185.1 33.1 182.7 32.1 179.7 32.1C176.8 32.1 174.4 33.1 172.5 35.1C170.6 37.1 169.6 39.5 169.6 42.3C169.6 45 170.6 47.4 172.5 49.4C174.4 51.4 176.8 52.4 179.7 52.4Z" fill="#FAFCFF"/>
  <path d="M218.5 26V31.2C220.5 27.3 223.9 25.3 228.7 25.3V34.6H226.3C223.5 34.6 221.4 35.2 220 36.5C218.6 37.7 217.9 39.9 217.9 42.9V59H209V26H218.5Z" fill="#FAFCFF"/>
  <path d="M246.8 60C243.6 60 240.8 59.5 238.5 58.4C236.1 57.2 234.2 55.6 232.8 53.5C231.4 51.5 230.7 49.1 230.7 46.5H239.6C239.8 47.9 240.5 49.1 241.7 50.1C242.9 51 244.3 51.5 246 51.5C247.7 51.5 249.1 51.2 250 50.5C250.9 49.8 251.4 48.9 251.4 47.7C251.4 46.4 250.7 45.4 249.2 44.8C247.8 44.2 245.5 43.5 242.4 42.8C239.2 42 236.6 41.3 234.8 40.5C233 39.7 231.4 38.5 230.1 36.9C228.8 35.3 228.2 33.1 228.2 30.5C228.2 28.3 228.8 26.2 230.1 24.4C231.4 22.6 233.1 21.2 235.4 20.1C237.7 19.1 240.4 18.6 243.4 18.6C247.9 18.6 251.5 19.8 254.2 22.1C256.9 24.4 258.4 27.6 258.8 31.7H250.4C250.2 30.2 249.6 29 248.6 28.2C247.6 27.4 246.2 27 244.6 27C243 27 241.8 27.3 240.9 27.9C240.1 28.5 239.7 29.4 239.7 30.4C239.7 31.8 240.4 32.8 241.8 33.4C243.3 34 245.6 34.7 248.5 35.4C251.6 36.2 254.1 37 255.9 37.8C257.7 38.6 259.3 39.8 260.7 41.5C262.1 43.1 262.8 45.3 262.9 48.1C262.9 50.4 262.2 52.5 260.9 54.4C259.6 56.2 257.7 57.6 255.4 58.7C253.1 59.6 250.2 60 246.8 60Z" fill="#FAFCFF"/>
</svg>
